<?xml version="1.0" encoding="UTF-8"?>
<!DOCTYPE svg PUBLIC "-//W3C//DTD SVG 1.1//EN" "http://www.w3.org/Graphics/SVG/1.1/DTD/svg11.dtd">
<!-- Creator: CorelDRAW -->
<svg xmlns="http://www.w3.org/2000/svg" xml:space="preserve" width="2048px" height="2048px" style="shape-rendering:geometricPrecision; text-rendering:geometricPrecision; image-rendering:optimizeQuality; fill-rule:evenodd; clip-rule:evenodd"
viewBox="0 0 2048 2048"
 xmlns:xlink="http://www.w3.org/1999/xlink">
 <defs>
  <style type="text/css">
   <![CDATA[
    .fil0 {fill:none}
    .fil1 {fill:#FF9800}
    .fil2 {fill:#FFFFFE}
   ]]>
  </style>
 </defs>
 <g id="Layer_x0020_1">
  <metadata id="CorelCorpID_0Corel-Layer"/>
  <rect class="fil0" width="2048" height="2048"/>
  <rect class="fil1" width="2048" height="2048" rx="256.001" ry="256.001"/>
  <path class="fil2" d="M1331.8 998.048c14.3185,-20.7697 33.0851,-38.1827 54.9603,-51.091 28.0004,-16.5225 60,-25.0701 92.6198,-25.0701 46.7941,0 91.6808,17.6256 125.248,49.8201 27.8918,26.7508 45.9331,61.7351 50.7178,99.8068 34.9323,7.81536 66.7678,25.6559 91.1434,51.6378 29.1969,31.1209 45.5091,71.4426 45.5091,113.922 0,45.6485 -18.9083,88.578 -51.9957,120.311 -33.4406,32.0729 -78.1205,49.8118 -124.771,49.8118l-477.871 0.00354331c-46.7894,0 -91.6583,-17.6268 -125.236,-49.7989 -33.1122,-31.728 -52.1398,-74.6398 -52.1398,-120.327 0,-12.3036 1.49764,-24.5717 4.26024,-36.5658 8.68938,-37.7315 30.5268,-71.2595 61.1741,-95.3044 31.6807,-24.854 70.7977,-38.276 111.292,-38.276 6.93662,0 13.8697,0.424016 20.7567,1.22599 14.5689,-19.989 33.3473,-36.6815 55.0075,-48.9674 27.3236,-15.4961 58.3311,-23.6469 89.8572,-23.6469 8.19331,0 16.3878,0.634252 24.5008,1.75512 1.65945,0.230315 3.31418,0.480709 4.96654,0.753544z"/>
  <path class="fil2" d="M1154.75 1035.86c-10.5744,-6.06615 -21.4406,-11.6244 -32.5559,-16.6358 -47.452,-21.3957 -98.5276,-32.3587 -150.581,-32.3587 -105.125,0 -202.506,44.8654 -274.038,121.049 -74.9481,79.8178 -114.52,185.973 -114.52,295.1l0 4.98426 -71.8855 0 0 -4.98426c0,-127.437 46.6902,-251.106 134.151,-344.251 85.1469,-90.6816 201.202,-143.785 326.293,-143.785 62.2571,0 123.331,13.2201 180.076,38.804 22.2638,10.0394 43.676,21.9095 64.017,35.4166 -1.90276,1.01693 -3.79134,2.06457 -5.66457,3.14292 -19.9453,11.4815 -37.8095,26.2276 -52.8142,43.578 -0.825591,-0.0248032 -1.65236,-0.0437008 -2.47677,-0.0590552z"/>
  <path class="fil2" d="M1260.65 971.483c-33.2918,-26.6492 -69.8587,-49.0595 -108.872,-66.3473 -60.8008,-26.9433 -126.095,-40.767 -192.599,-40.767 -136.31,0 -262.601,58.1374 -355.356,156.921 -96.952,103.253 -148.21,240.545 -148.21,381.724l0 4.98426 -72.4749 0 0 -4.98426c0,-159.641 58.4351,-314.588 168.002,-431.277 106.481,-113.401 251.601,-179.843 408.038,-179.843 76.5851,0 151.776,15.9697 221.786,46.9937 60.4264,26.7768 115.593,64.18 163.362,109.794 -5.34922,5.15552 -10.4197,10.6016 -15.1843,16.3205 -4.87441,-0.366142 -9.75946,-0.559843 -14.6492,-0.559843 -18.2445,0 -36.3473,2.38819 -53.8441,7.04056z"/>
  <path class="fil2" d="M1383.24 919.246c-53.993,-53.7792 -117.288,-98.3918 -186.565,-130.225 -76.3713,-35.0918 -158.943,-54.1016 -243.083,-54.1016 -169.267,0 -326.118,72.1607 -441.305,194.835 -120.204,128.016 -183.812,298.213 -183.812,473.261l0 4.98426 -72.4749 0 0 -4.98426c0,-193.508 70.7847,-381.363 203.604,-522.815 128.913,-137.291 304.59,-217.758 493.987,-217.758 94.5402,0 187.321,21.4488 273.124,60.8764 87.5422,40.2248 166.618,98.6127 231.579,169.697 -26.3811,3.85512 -51.8693,12.6862 -75.0556,26.2299z"/>
 </g>
</svg>
